<svg width="32" height="32" viewBox="0 0 32 32" fill="none" xmlns="http://www.w3.org/2000/svg">
<path d="M10.4023 8.37801C10.5009 8.28049 10.5781 8.16361 10.6293 8.03475C10.6804 7.90588 10.7042 7.76782 10.6994 7.62927C10.6945 7.49071 10.6609 7.35468 10.6008 7.22973C10.5408 7.10479 10.4555 6.99365 10.3503 6.90332C9.82101 6.45162 9.14859 6.20245 8.45278 6.2002L8.2995 6.20441H8.277C6.69028 6.30098 5.45278 7.6791 5.45606 9.34082C5.45606 10.2314 5.83106 10.703 6.12731 11.0804C6.21044 11.1858 6.31466 11.2728 6.4333 11.3358C6.55194 11.3988 6.68241 11.4363 6.81637 11.446C6.82856 11.446 6.84919 11.4483 6.91012 11.4483C7.03062 11.4481 7.14984 11.4236 7.26061 11.3761C7.37137 11.3287 7.47139 11.2593 7.55465 11.1722L10.4023 8.37801ZM22.1304 6.20535L21.9772 6.20066H21.9528C21.2563 6.20248 20.5832 6.45167 20.0534 6.90379C19.9484 6.99411 19.8632 7.1052 19.8032 7.23006C19.7432 7.35492 19.7097 7.49084 19.7048 7.62928C19.6999 7.76771 19.7238 7.90566 19.7748 8.03444C19.8258 8.16322 19.903 8.28003 20.0014 8.37754L22.85 11.1736C22.9334 11.2611 23.0337 11.3306 23.1448 11.3782C23.2559 11.4257 23.3755 11.4502 23.4964 11.4502C23.5564 11.4502 23.577 11.4502 23.5901 11.4479C23.724 11.4381 23.8544 11.4005 23.9729 11.3376C24.0915 11.2746 24.1956 11.1877 24.2787 11.0822C24.5768 10.7049 24.9481 10.2347 24.95 9.34269C24.9528 7.6791 23.7153 6.30098 22.1304 6.20535Z" fill="#3C3C3C" fill-opacity="0.64"/>
<path d="M15.2067 7.7002C10.6599 7.7002 6.95673 11.401 6.95673 15.9502C6.95512 17.879 7.63233 19.7468 8.8697 21.2264L7.17658 22.92C7.10528 22.9893 7.04846 23.0721 7.00943 23.1635C6.9704 23.2549 6.94994 23.3532 6.94924 23.4526C6.94853 23.552 6.9676 23.6506 7.00533 23.7426C7.04306 23.8346 7.09869 23.9181 7.16901 23.9884C7.23932 24.0587 7.3229 24.1143 7.41489 24.152C7.50689 24.1897 7.60545 24.2087 7.70487 24.2079C7.80428 24.2072 7.90255 24.1867 7.99396 24.1476C8.08538 24.1085 8.16811 24.0517 8.23736 23.9804L9.93048 22.2872C11.4109 23.5232 13.2782 24.2002 15.2067 24.2002C17.1353 24.2002 19.0026 23.5232 20.483 22.2872L22.1766 23.9804C22.2458 24.0517 22.3286 24.1085 22.42 24.1476C22.5114 24.1867 22.6097 24.2072 22.7091 24.2079C22.8085 24.2087 22.907 24.1897 22.999 24.152C23.091 24.1143 23.1746 24.0587 23.2449 23.9884C23.3152 23.9181 23.3709 23.8346 23.4086 23.7426C23.4463 23.6506 23.4654 23.552 23.4647 23.4526C23.464 23.3532 23.4435 23.2549 23.4045 23.1635C23.3655 23.0721 23.3087 22.9893 23.2374 22.92L21.5438 21.2264C22.7813 19.747 23.4586 17.879 23.4567 15.9502C23.4567 11.4033 19.756 7.7002 15.2067 7.7002ZM15.9567 15.9502C15.9567 16.1491 15.8777 16.3399 15.7371 16.4805C15.5964 16.6212 15.4056 16.7002 15.2067 16.7002H11.4567C11.2578 16.7002 11.0671 16.6212 10.9264 16.4805C10.7858 16.3399 10.7067 16.1491 10.7067 15.9502C10.7067 15.7513 10.7858 15.5605 10.9264 15.4199C11.0671 15.2792 11.2578 15.2002 11.4567 15.2002H14.4567V10.7002C14.4567 10.5013 14.5358 10.3105 14.6764 10.1699C14.8171 10.0292 15.0078 9.9502 15.2067 9.9502C15.4056 9.9502 15.5964 10.0292 15.7371 10.1699C15.8777 10.3105 15.9567 10.5013 15.9567 10.7002V15.9502Z" fill="#3C3C3C" fill-opacity="0.64"/>
</svg>
