<svg width="32" height="32" viewBox="0 0 32 32" fill="none" xmlns="http://www.w3.org/2000/svg">
<rect width="32" height="32" rx="4" fill="#ECE7E7"/>
<rect width="24" height="24" transform="translate(3.20312 3.2002)" fill="#ECE7E7"/>
<path d="M22.2331 10.5902L23.6531 9.1702C23.2031 8.6602 22.7531 8.2002 22.2431 7.7602L20.8231 9.2002C19.2731 7.9402 17.3231 7.2002 15.2031 7.2002C12.8162 7.2002 10.527 8.14841 8.83916 9.83623C7.15134 11.5241 6.20312 13.8132 6.20312 16.2002C6.20312 18.5871 7.15134 20.8763 8.83916 22.5642C10.527 24.252 12.8162 25.2002 15.2031 25.2002C20.2031 25.2002 24.2031 21.1702 24.2031 16.2002C24.2031 14.0802 23.4631 12.1302 22.2331 10.5902ZM16.2031 17.2002H14.2031V10.2002H16.2031V17.2002ZM18.2031 4.2002H12.2031V6.2002H18.2031V4.2002Z" fill="#3C3C3C"/>
</svg>
